<mxfile host="app.diagrams.net" agent="Mozilla/5.0 (Windows NT 10.0; Win64; x64) AppleWebKit/537.36 (KHTML, like Gecko) Chrome/138.0.0.0 Safari/537.36 OPR/122.0.0.0 (Edition std-2)" version="28.2.7">
  <diagram name="Página-1" id="qHOFopYTMKSWcp5GYy4W">
    <mxGraphModel dx="1837" dy="1015" grid="1" gridSize="10" guides="1" tooltips="1" connect="1" arrows="1" fold="1" page="1" pageScale="1" pageWidth="827" pageHeight="1169" math="0" shadow="0" adaptiveColors="simple">
      <root>
        <mxCell id="0" />
        <mxCell id="1" parent="0" />
        <mxCell id="eyIPHd_IOb050wTdh4Zv-3" value="" style="edgeStyle=orthogonalEdgeStyle;orthogonalLoop=1;jettySize=auto;html=1;fillColor=#6a00ff;strokeColor=#3700CC;" edge="1" parent="1" source="eyIPHd_IOb050wTdh4Zv-1" target="eyIPHd_IOb050wTdh4Zv-2">
          <mxGeometry relative="1" as="geometry" />
        </mxCell>
        <mxCell id="eyIPHd_IOb050wTdh4Zv-1" value="Inicio" style="ellipse;whiteSpace=wrap;html=1;labelBackgroundColor=none;fillColor=#6a00ff;strokeColor=#3700CC;fontColor=#ffffff;rounded=0;" vertex="1" parent="1">
          <mxGeometry x="739" y="140" width="61" height="40" as="geometry" />
        </mxCell>
        <mxCell id="eyIPHd_IOb050wTdh4Zv-5" value="" style="edgeStyle=orthogonalEdgeStyle;orthogonalLoop=1;jettySize=auto;html=1;fillColor=#1ba1e2;strokeColor=#006EAF;entryX=0.5;entryY=0;entryDx=0;entryDy=0;" edge="1" parent="1" source="eyIPHd_IOb050wTdh4Zv-2" target="eyIPHd_IOb050wTdh4Zv-4">
          <mxGeometry relative="1" as="geometry">
            <mxPoint x="730" y="300" as="targetPoint" />
          </mxGeometry>
        </mxCell>
        <mxCell id="eyIPHd_IOb050wTdh4Zv-2" value="El usuario abre la aplicación/PWA" style="rounded=0;whiteSpace=wrap;html=1;fillColor=#1ba1e2;fontColor=#ffffff;strokeColor=#006EAF;" vertex="1" parent="1">
          <mxGeometry x="709.5" y="210" width="120" height="60" as="geometry" />
        </mxCell>
        <mxCell id="eyIPHd_IOb050wTdh4Zv-9" value="" style="edgeStyle=orthogonalEdgeStyle;orthogonalLoop=1;jettySize=auto;html=1;entryX=0.5;entryY=0;entryDx=0;entryDy=0;fillColor=#1ba1e2;strokeColor=#006EAF;" edge="1" parent="1" source="eyIPHd_IOb050wTdh4Zv-4" target="eyIPHd_IOb050wTdh4Zv-17">
          <mxGeometry relative="1" as="geometry" />
        </mxCell>
        <mxCell id="eyIPHd_IOb050wTdh4Zv-47" value="" style="edgeStyle=orthogonalEdgeStyle;orthogonalLoop=1;jettySize=auto;html=1;fillColor=#1ba1e2;strokeColor=#006EAF;" edge="1" parent="1" source="eyIPHd_IOb050wTdh4Zv-4" target="eyIPHd_IOb050wTdh4Zv-44">
          <mxGeometry relative="1" as="geometry" />
        </mxCell>
        <mxCell id="eyIPHd_IOb050wTdh4Zv-4" value="Pantalla principal" style="whiteSpace=wrap;html=1;rounded=0;fillColor=#1ba1e2;fontColor=#ffffff;strokeColor=#006EAF;" vertex="1" parent="1">
          <mxGeometry x="709.5" y="320" width="120" height="60" as="geometry" />
        </mxCell>
        <mxCell id="eyIPHd_IOb050wTdh4Zv-7" value="" style="edgeStyle=orthogonalEdgeStyle;orthogonalLoop=1;jettySize=auto;html=1;strokeColor=#FFFFFF;" edge="1" parent="1" source="eyIPHd_IOb050wTdh4Zv-6" target="eyIPHd_IOb050wTdh4Zv-4">
          <mxGeometry relative="1" as="geometry" />
        </mxCell>
        <mxCell id="eyIPHd_IOb050wTdh4Zv-6" value="&lt;div style=&quot;&quot;&gt;&lt;span style=&quot;font-size: 10px; background-color: transparent;&quot;&gt;&lt;font style=&quot;color: rgb(255, 255, 255);&quot;&gt;- Muestra las notas creadas.&lt;/font&gt;&lt;/span&gt;&lt;/div&gt;&lt;div style=&quot;&quot;&gt;&lt;span style=&quot;font-size: 10px; background-color: transparent;&quot;&gt;&lt;font style=&quot;color: rgb(255, 255, 255);&quot;&gt;- Para editar las notas tiene que seleccionarlas primero.&lt;/font&gt;&lt;/span&gt;&lt;/div&gt;&lt;div style=&quot;&quot;&gt;&lt;span style=&quot;font-size: 10px; background-color: transparent;&quot;&gt;&lt;font style=&quot;color: rgb(255, 255, 255);&quot;&gt;- Diseño minimalista, que sea lo menos abrumador posible.&lt;/font&gt;&lt;/span&gt;&lt;/div&gt;" style="rounded=0;whiteSpace=wrap;html=1;align=left;strokeColor=#000000;fillColor=#0B0B0B;" vertex="1" parent="1">
          <mxGeometry x="450" y="310" width="190" height="80" as="geometry" />
        </mxCell>
        <mxCell id="eyIPHd_IOb050wTdh4Zv-14" value="" style="endArrow=classic;html=1;exitX=0.448;exitY=1;exitDx=0;exitDy=0;entryX=0.5;entryY=0;entryDx=0;entryDy=0;fillColor=#008a00;strokeColor=#005700;exitPerimeter=0;" edge="1" parent="1" source="eyIPHd_IOb050wTdh4Zv-12" target="eyIPHd_IOb050wTdh4Zv-15">
          <mxGeometry width="50" height="50" relative="1" as="geometry">
            <mxPoint x="694" y="490" as="sourcePoint" />
            <mxPoint x="620" y="550" as="targetPoint" />
            <Array as="points" />
          </mxGeometry>
        </mxCell>
        <mxCell id="eyIPHd_IOb050wTdh4Zv-30" style="edgeStyle=orthogonalEdgeStyle;orthogonalLoop=1;jettySize=auto;html=1;entryX=0.5;entryY=0;entryDx=0;entryDy=0;exitX=0.5;exitY=1;exitDx=0;exitDy=0;fillColor=#0050ef;strokeColor=#001DBC;" edge="1" parent="1" source="eyIPHd_IOb050wTdh4Zv-15" target="eyIPHd_IOb050wTdh4Zv-64">
          <mxGeometry relative="1" as="geometry">
            <mxPoint x="709.5" y="680" as="targetPoint" />
          </mxGeometry>
        </mxCell>
        <mxCell id="eyIPHd_IOb050wTdh4Zv-15" value="&lt;font style=&quot;font-size: 10px;&quot;&gt;Hablar para guardar nota de voz&lt;/font&gt;" style="rounded=0;whiteSpace=wrap;html=1;fillColor=#0050ef;fontColor=#ffffff;strokeColor=#001DBC;" vertex="1" parent="1">
          <mxGeometry x="570" y="550" width="120" height="60" as="geometry" />
        </mxCell>
        <mxCell id="eyIPHd_IOb050wTdh4Zv-31" style="edgeStyle=orthogonalEdgeStyle;orthogonalLoop=1;jettySize=auto;html=1;exitX=0.5;exitY=1;exitDx=0;exitDy=0;entryX=0.5;entryY=0;entryDx=0;entryDy=0;fillColor=#a20025;strokeColor=#6F0000;" edge="1" parent="1" source="eyIPHd_IOb050wTdh4Zv-16" target="eyIPHd_IOb050wTdh4Zv-64">
          <mxGeometry relative="1" as="geometry">
            <mxPoint x="930.5" y="650" as="sourcePoint" />
            <mxPoint x="829.5" y="680" as="targetPoint" />
          </mxGeometry>
        </mxCell>
        <mxCell id="eyIPHd_IOb050wTdh4Zv-16" value="&lt;span style=&quot;font-size: 10px;&quot;&gt;Escribir en la nota&lt;/span&gt;" style="rounded=0;whiteSpace=wrap;html=1;align=center;fillColor=#a20025;fontColor=#ffffff;strokeColor=#6F0000;" vertex="1" parent="1">
          <mxGeometry x="850" y="550" width="120" height="60" as="geometry" />
        </mxCell>
        <mxCell id="eyIPHd_IOb050wTdh4Zv-25" style="edgeStyle=orthogonalEdgeStyle;orthogonalLoop=1;jettySize=auto;html=1;entryX=0.5;entryY=0;entryDx=0;entryDy=0;fillColor=#008a00;strokeColor=#005700;exitX=0.552;exitY=1.022;exitDx=0;exitDy=0;exitPerimeter=0;" edge="1" parent="1" source="eyIPHd_IOb050wTdh4Zv-11" target="eyIPHd_IOb050wTdh4Zv-16">
          <mxGeometry relative="1" as="geometry" />
        </mxCell>
        <mxCell id="eyIPHd_IOb050wTdh4Zv-17" value="Grabar nota nueva" style="rhombus;whiteSpace=wrap;html=1;fillColor=#008a00;fontColor=#ffffff;strokeColor=#005700;" vertex="1" parent="1">
          <mxGeometry x="696.5" y="450" width="146" height="80" as="geometry" />
        </mxCell>
        <mxCell id="eyIPHd_IOb050wTdh4Zv-59" value="" style="edgeStyle=orthogonalEdgeStyle;orthogonalLoop=1;jettySize=auto;html=1;exitX=0.5;exitY=1;exitDx=0;exitDy=0;entryX=0.5;entryY=0;entryDx=0;entryDy=0;fillColor=#008a00;strokeColor=#005700;" edge="1" parent="1" source="eyIPHd_IOb050wTdh4Zv-61" target="eyIPHd_IOb050wTdh4Zv-33">
          <mxGeometry relative="1" as="geometry">
            <mxPoint x="769.5142857142857" y="710" as="sourcePoint" />
            <mxPoint x="770" y="810" as="targetPoint" />
          </mxGeometry>
        </mxCell>
        <mxCell id="eyIPHd_IOb050wTdh4Zv-70" style="edgeStyle=orthogonalEdgeStyle;orthogonalLoop=1;jettySize=auto;html=1;entryX=0.5;entryY=0;entryDx=0;entryDy=0;fillColor=#1ba1e2;strokeColor=#006EAF;" edge="1" parent="1" source="eyIPHd_IOb050wTdh4Zv-33" target="eyIPHd_IOb050wTdh4Zv-65">
          <mxGeometry relative="1" as="geometry" />
        </mxCell>
        <mxCell id="eyIPHd_IOb050wTdh4Zv-33" value="Programar fecha y hora para el recordatorio de la nota" style="rounded=0;whiteSpace=wrap;html=1;fillColor=#1ba1e2;fontColor=#ffffff;strokeColor=#006EAF;" vertex="1" parent="1">
          <mxGeometry x="710" y="812.5" width="120" height="60" as="geometry" />
        </mxCell>
        <mxCell id="eyIPHd_IOb050wTdh4Zv-37" value="" style="edgeStyle=orthogonalEdgeStyle;orthogonalLoop=1;jettySize=auto;html=1;strokeColor=#FFFFFF;" edge="1" parent="1" source="eyIPHd_IOb050wTdh4Zv-35" target="eyIPHd_IOb050wTdh4Zv-33">
          <mxGeometry relative="1" as="geometry" />
        </mxCell>
        <mxCell id="eyIPHd_IOb050wTdh4Zv-35" value="&lt;div&gt;&lt;font style=&quot;font-size: 10px; color: rgb(255, 255, 255);&quot;&gt;- En caso de &quot;ACTUALIZAR&quot; la nota, se deja la fecha puesta anteriormente.&lt;/font&gt;&lt;/div&gt;&lt;font style=&quot;font-size: 10px; color: rgb(255, 255, 255);&quot;&gt;- Solicita escoger la fecha, o si es hoy mismo, con una opción que diga &quot;hoy mismo&quot;.&lt;/font&gt;&lt;div&gt;&lt;font style=&quot;font-size: 10px; color: rgb(255, 255, 255);&quot;&gt;- Solicita escribir la hora en la que se mostrará el recordatorio.&lt;/font&gt;&lt;/div&gt;&lt;div&gt;&lt;font style=&quot;font-size: 10px;&quot;&gt;&lt;font style=&quot;color: rgb(255, 255, 255);&quot;&gt;- Se guarda de forma local con el reloj del dispositivo.&lt;/font&gt;&lt;br&gt;&lt;/font&gt;&lt;/div&gt;" style="rounded=0;whiteSpace=wrap;html=1;align=left;strokeColor=#000000;fillColor=#0B0B0B;" vertex="1" parent="1">
          <mxGeometry x="922" y="790" width="240" height="105" as="geometry" />
        </mxCell>
        <mxCell id="eyIPHd_IOb050wTdh4Zv-40" style="edgeStyle=orthogonalEdgeStyle;orthogonalLoop=1;jettySize=auto;html=1;entryX=0;entryY=0.5;entryDx=0;entryDy=0;strokeColor=#FFFFFF;" edge="1" parent="1" source="eyIPHd_IOb050wTdh4Zv-39" target="eyIPHd_IOb050wTdh4Zv-2">
          <mxGeometry relative="1" as="geometry" />
        </mxCell>
        <mxCell id="eyIPHd_IOb050wTdh4Zv-39" value="&lt;font style=&quot;color: rgb(255, 255, 255); font-size: 10px;&quot;&gt;- Aplicación web progresiva (PWA).&lt;/font&gt;&lt;div&gt;&lt;font style=&quot;color: rgb(255, 255, 255); font-size: 10px;&quot;&gt;- Aplicación de escritorio/celular.&lt;/font&gt;&lt;/div&gt;" style="rounded=0;whiteSpace=wrap;html=1;strokeColor=#000000;fillColor=#0B0B0B;align=left;" vertex="1" parent="1">
          <mxGeometry x="550" y="210" width="90" height="60" as="geometry" />
        </mxCell>
        <mxCell id="eyIPHd_IOb050wTdh4Zv-78" value="" style="edgeStyle=orthogonalEdgeStyle;orthogonalLoop=1;jettySize=auto;html=1;fillColor=#1ba1e2;strokeColor=#006EAF;" edge="1" parent="1" source="eyIPHd_IOb050wTdh4Zv-42">
          <mxGeometry relative="1" as="geometry">
            <mxPoint x="769.5" y="1200" as="targetPoint" />
          </mxGeometry>
        </mxCell>
        <mxCell id="eyIPHd_IOb050wTdh4Zv-42" value="Verificar los recordatorios activos" style="rounded=0;whiteSpace=wrap;html=1;fillColor=#1ba1e2;fontColor=#ffffff;strokeColor=#006EAF;" vertex="1" parent="1">
          <mxGeometry x="709.5" y="1060" width="120" height="60" as="geometry" />
        </mxCell>
        <mxCell id="eyIPHd_IOb050wTdh4Zv-45" value="" style="edgeStyle=orthogonalEdgeStyle;orthogonalLoop=1;jettySize=auto;html=1;strokeColor=#FFFFFF;" edge="1" parent="1" source="eyIPHd_IOb050wTdh4Zv-43" target="eyIPHd_IOb050wTdh4Zv-42">
          <mxGeometry relative="1" as="geometry" />
        </mxCell>
        <mxCell id="eyIPHd_IOb050wTdh4Zv-43" value="&lt;font style=&quot;font-size: 10px; color: rgb(255, 255, 255);&quot;&gt;- Notas que no han llegado a su fecha de notificación, se ordenaran en forma ascendente a las que estén a punto de llegar a su fecha límite.&lt;/font&gt;&lt;div&gt;&lt;span style=&quot;font-size: 10px;&quot;&gt;&lt;font style=&quot;color: rgb(255, 255, 255);&quot;&gt;- Notas sin fecha de notificación (notas grabadas o guardadas permanentemente, o hasta que el usuario las borre manualmente), se mantendrán guardadas sin riesgo a ser borradas automáticamente por el sistema, en orden cronológico desde que se guardaron/actualizaron.&lt;br&gt;&lt;/font&gt;&lt;/span&gt;&lt;div&gt;&lt;font style=&quot;font-size: 10px; color: rgb(255, 255, 255);&quot;&gt;- En caso de haber caducado, o sobrepasado su fecha, se pone como nota &quot;no completada&quot;, se le da un periodo de 30 días para que se borre la nota automáticamente, actualizar la fecha o quitar el recordatorio de la nota, y dejarla simplemente como nota en el apartado de &quot;editar nota&quot;.&lt;/font&gt;&lt;/div&gt;&lt;/div&gt;" style="rounded=0;whiteSpace=wrap;html=1;align=left;strokeColor=#0B0B0B;fillColor=#0B0B0B;" vertex="1" parent="1">
          <mxGeometry x="910" y="1008.75" width="320" height="162.5" as="geometry" />
        </mxCell>
        <mxCell id="eyIPHd_IOb050wTdh4Zv-54" style="edgeStyle=orthogonalEdgeStyle;orthogonalLoop=1;jettySize=auto;html=1;entryX=0.5;entryY=0;entryDx=0;entryDy=0;exitX=0;exitY=0.5;exitDx=0;exitDy=0;fillColor=#008a00;strokeColor=#005700;" edge="1" parent="1" source="eyIPHd_IOb050wTdh4Zv-55" target="eyIPHd_IOb050wTdh4Zv-17">
          <mxGeometry relative="1" as="geometry">
            <mxPoint x="1100" y="450" as="sourcePoint" />
            <mxPoint x="959.5" y="550" as="targetPoint" />
          </mxGeometry>
        </mxCell>
        <mxCell id="eyIPHd_IOb050wTdh4Zv-44" value="Editar nota existente" style="rhombus;whiteSpace=wrap;html=1;fillColor=#008a00;fontColor=#ffffff;strokeColor=#005700;" vertex="1" parent="1">
          <mxGeometry x="910" y="310" width="120" height="80" as="geometry" />
        </mxCell>
        <mxCell id="eyIPHd_IOb050wTdh4Zv-57" style="edgeStyle=orthogonalEdgeStyle;orthogonalLoop=1;jettySize=auto;html=1;entryX=0.5;entryY=0;entryDx=0;entryDy=0;exitX=0.5;exitY=0;exitDx=0;exitDy=0;fillColor=#a20025;strokeColor=#6F0000;" edge="1" parent="1" source="eyIPHd_IOb050wTdh4Zv-48" target="eyIPHd_IOb050wTdh4Zv-4">
          <mxGeometry relative="1" as="geometry">
            <Array as="points">
              <mxPoint x="1220" y="290" />
              <mxPoint x="770" y="290" />
            </Array>
          </mxGeometry>
        </mxCell>
        <mxCell id="eyIPHd_IOb050wTdh4Zv-48" value="Borrar nota" style="whiteSpace=wrap;html=1;fillColor=#a20025;fontColor=#ffffff;strokeColor=#6F0000;" vertex="1" parent="1">
          <mxGeometry x="1160" y="320" width="120" height="60" as="geometry" />
        </mxCell>
        <mxCell id="eyIPHd_IOb050wTdh4Zv-51" value="" style="edgeStyle=orthogonalEdgeStyle;orthogonalLoop=1;jettySize=auto;html=1;strokeColor=#FFFFFF;" edge="1" parent="1" source="eyIPHd_IOb050wTdh4Zv-50" target="eyIPHd_IOb050wTdh4Zv-48">
          <mxGeometry relative="1" as="geometry" />
        </mxCell>
        <mxCell id="eyIPHd_IOb050wTdh4Zv-50" value="&lt;div&gt;&lt;font style=&quot;font-size: 10px; color: rgb(255, 255, 255);&quot;&gt;- Se muestra una ventana emergente preguntando si está seguro de borrar esta nota.&lt;/font&gt;&lt;/div&gt;&lt;font style=&quot;font-size: 10px; color: rgb(255, 255, 255);&quot;&gt;- Se borran los datos junto con el recordatorio.&lt;/font&gt;" style="rounded=0;whiteSpace=wrap;html=1;align=left;strokeColor=#000000;fillColor=#0B0B0B;" vertex="1" parent="1">
          <mxGeometry x="1340" y="300" width="120" height="100" as="geometry" />
        </mxCell>
        <mxCell id="eyIPHd_IOb050wTdh4Zv-64" value="Catalogar como recordatorio" style="rhombus;whiteSpace=wrap;html=1;fillColor=#008a00;fontColor=#ffffff;strokeColor=#005700;" vertex="1" parent="1">
          <mxGeometry x="710" y="670" width="120" height="80" as="geometry" />
        </mxCell>
        <mxCell id="eyIPHd_IOb050wTdh4Zv-69" value="" style="edgeStyle=orthogonalEdgeStyle;orthogonalLoop=1;jettySize=auto;html=1;fillColor=#1ba1e2;strokeColor=#006EAF;" edge="1" parent="1" source="eyIPHd_IOb050wTdh4Zv-65" target="eyIPHd_IOb050wTdh4Zv-42">
          <mxGeometry relative="1" as="geometry" />
        </mxCell>
        <mxCell id="eyIPHd_IOb050wTdh4Zv-65" value="Guardar nota" style="rounded=0;whiteSpace=wrap;html=1;fillColor=#1ba1e2;fontColor=#ffffff;strokeColor=#006EAF;" vertex="1" parent="1">
          <mxGeometry x="709.5" y="930" width="120" height="60" as="geometry" />
        </mxCell>
        <mxCell id="eyIPHd_IOb050wTdh4Zv-68" value="" style="edgeStyle=orthogonalEdgeStyle;orthogonalLoop=1;jettySize=auto;html=1;strokeColor=#FFFFFF;" edge="1" parent="1" source="eyIPHd_IOb050wTdh4Zv-67" target="eyIPHd_IOb050wTdh4Zv-65">
          <mxGeometry relative="1" as="geometry">
            <Array as="points">
              <mxPoint x="650" y="1080" />
              <mxPoint x="650" y="960" />
            </Array>
          </mxGeometry>
        </mxCell>
        <mxCell id="eyIPHd_IOb050wTdh4Zv-111" style="edgeStyle=orthogonalEdgeStyle;orthogonalLoop=1;jettySize=auto;html=1;exitX=1;exitY=0.5;exitDx=0;exitDy=0;entryX=1;entryY=0.5;entryDx=0;entryDy=0;strokeColor=#FFFFFF;" edge="1" parent="1" source="eyIPHd_IOb050wTdh4Zv-67" target="eyIPHd_IOb050wTdh4Zv-98">
          <mxGeometry relative="1" as="geometry">
            <Array as="points">
              <mxPoint x="650" y="1080" />
              <mxPoint x="650" y="960" />
            </Array>
          </mxGeometry>
        </mxCell>
        <mxCell id="eyIPHd_IOb050wTdh4Zv-67" value="&lt;font style=&quot;font-size: 10px; color: rgb(255, 255, 255);&quot;&gt;- Automáticamente guarda la fecha en que se creó la nota.&lt;/font&gt;" style="rounded=0;whiteSpace=wrap;html=1;align=left;strokeColor=#0B0B0B;fillColor=#0B0B0B;" vertex="1" parent="1">
          <mxGeometry x="472.5" y="1050" width="120" height="60" as="geometry" />
        </mxCell>
        <mxCell id="eyIPHd_IOb050wTdh4Zv-72" style="edgeStyle=orthogonalEdgeStyle;orthogonalLoop=1;jettySize=auto;html=1;entryX=0.5;entryY=0;entryDx=0;entryDy=0;strokeColor=#FFFFFF;" edge="1" parent="1" source="eyIPHd_IOb050wTdh4Zv-71" target="eyIPHd_IOb050wTdh4Zv-44">
          <mxGeometry relative="1" as="geometry" />
        </mxCell>
        <mxCell id="eyIPHd_IOb050wTdh4Zv-71" value="&lt;font style=&quot;font-size: 10px; color: rgb(255, 255, 255);&quot;&gt;- Se agrega una opción en &quot;ACTUALIZAR&quot; para quitar la fecha de la notificación de la nota, y dejarla como nota permanente y viceversa.&lt;/font&gt;" style="rounded=0;whiteSpace=wrap;html=1;align=left;strokeColor=#000000;fillColor=#0B0B0B;" vertex="1" parent="1">
          <mxGeometry x="879.63" y="210" width="179.75" height="60" as="geometry" />
        </mxCell>
        <mxCell id="eyIPHd_IOb050wTdh4Zv-74" value="" style="edgeStyle=orthogonalEdgeStyle;orthogonalLoop=1;jettySize=auto;html=1;strokeColor=#FFFFFF;" edge="1" parent="1" source="eyIPHd_IOb050wTdh4Zv-73" target="eyIPHd_IOb050wTdh4Zv-15">
          <mxGeometry relative="1" as="geometry" />
        </mxCell>
        <mxCell id="eyIPHd_IOb050wTdh4Zv-73" value="&lt;font style=&quot;font-size: 10px; color: rgb(255, 255, 255);&quot;&gt;- Se muestra la duración de la nota de voz.&lt;/font&gt;&lt;div&gt;&lt;font style=&quot;font-size: 10px; color: rgb(255, 255, 255);&quot;&gt;- Botón para reproducirla y pausarla.&lt;/font&gt;&lt;/div&gt;&lt;div&gt;&lt;font style=&quot;font-size: 10px; color: rgb(255, 255, 255);&quot;&gt;- Línea de desplazamiento para escuchar diferentes partes de la nota.&lt;/font&gt;&lt;/div&gt;" style="rounded=0;whiteSpace=wrap;html=1;align=left;strokeColor=#000000;fillColor=#0B0B0B;" vertex="1" parent="1">
          <mxGeometry x="350" y="540" width="170" height="80" as="geometry" />
        </mxCell>
        <mxCell id="eyIPHd_IOb050wTdh4Zv-76" value="" style="edgeStyle=orthogonalEdgeStyle;orthogonalLoop=1;jettySize=auto;html=1;strokeColor=#FFFFFF;" edge="1" parent="1" source="eyIPHd_IOb050wTdh4Zv-75" target="eyIPHd_IOb050wTdh4Zv-16">
          <mxGeometry relative="1" as="geometry" />
        </mxCell>
        <mxCell id="eyIPHd_IOb050wTdh4Zv-75" value="&lt;font style=&quot;font-size: 10px; color: rgb(255, 255, 255);&quot;&gt;- Botones extra que permite cambiar el tamaño de letra con 4 opciones:&amp;nbsp; Título, encabezado, subtítulo y cuerpo.&lt;/font&gt;&lt;div&gt;&lt;font style=&quot;font-size: 10px; color: rgb(255, 255, 255);&quot;&gt;- Botones de negrita, subrayado, cursiva y tachado.&lt;br&gt;- 5 colores de personalización para la letra (morado, rosa, naranja, turquesa y azul).&lt;/font&gt;&lt;/div&gt;" style="rounded=0;whiteSpace=wrap;html=1;align=left;strokeColor=#000000;fillColor=#0B0B0B;" vertex="1" parent="1">
          <mxGeometry x="1020" y="525" width="210" height="110" as="geometry" />
        </mxCell>
        <mxCell id="eyIPHd_IOb050wTdh4Zv-80" value="" style="edgeStyle=orthogonalEdgeStyle;orthogonalLoop=1;jettySize=auto;html=1;entryX=1;entryY=0.5;entryDx=0;entryDy=0;strokeColor=#FFFFFF;" edge="1" parent="1" source="eyIPHd_IOb050wTdh4Zv-79" target="eyIPHd_IOb050wTdh4Zv-88">
          <mxGeometry relative="1" as="geometry">
            <mxPoint x="829.5" y="1230" as="targetPoint" />
          </mxGeometry>
        </mxCell>
        <mxCell id="eyIPHd_IOb050wTdh4Zv-79" value="&lt;font style=&quot;font-size: 10px; color: rgb(255, 255, 255);&quot;&gt;- Con sonido o alerta.&lt;/font&gt;&lt;div&gt;&lt;font style=&quot;font-size: 10px; color: rgb(255, 255, 255);&quot;&gt;- Al darle &quot;click&quot; a la notificación, le da la opción de reproducir la nota de voz, o ver la nota escrita.&lt;/font&gt;&lt;/div&gt;" style="rounded=0;whiteSpace=wrap;html=1;align=left;strokeColor=#0B0B0B;fillColor=#0B0B0B;" vertex="1" parent="1">
          <mxGeometry x="910.5" y="1210" width="160.5" height="60" as="geometry" />
        </mxCell>
        <mxCell id="eyIPHd_IOb050wTdh4Zv-86" value="" style="edgeStyle=orthogonalEdgeStyle;orthogonalLoop=1;jettySize=auto;html=1;fillColor=#1ba1e2;strokeColor=#006EAF;" edge="1" parent="1" source="eyIPHd_IOb050wTdh4Zv-81" target="eyIPHd_IOb050wTdh4Zv-85">
          <mxGeometry relative="1" as="geometry" />
        </mxCell>
        <mxCell id="eyIPHd_IOb050wTdh4Zv-81" value="Responder la notificación" style="rounded=0;whiteSpace=wrap;html=1;fillColor=#1ba1e2;fontColor=#ffffff;strokeColor=#006EAF;" vertex="1" parent="1">
          <mxGeometry x="710" y="1360" width="120" height="60" as="geometry" />
        </mxCell>
        <mxCell id="eyIPHd_IOb050wTdh4Zv-84" value="" style="edgeStyle=orthogonalEdgeStyle;orthogonalLoop=1;jettySize=auto;html=1;strokeColor=#FFFFFF;" edge="1" parent="1" source="eyIPHd_IOb050wTdh4Zv-83" target="eyIPHd_IOb050wTdh4Zv-81">
          <mxGeometry relative="1" as="geometry" />
        </mxCell>
        <mxCell id="eyIPHd_IOb050wTdh4Zv-83" value="&lt;div&gt;&lt;font style=&quot;font-size: 10px;&quot;&gt;&lt;font style=&quot;color: rgb(255, 255, 255);&quot;&gt;- En caso de haber completado la notificación, se le dará una opción de &quot;Completado&quot;, para que esta se marque con una palomita y que se mantenga ahí por 30 días hasta que se borre automáticamente, el usuario la borre manualmente, o decida cambiarla a nota permanente.&lt;/font&gt;&lt;br&gt;&lt;/font&gt;&lt;/div&gt;" style="rounded=0;whiteSpace=wrap;html=1;align=left;strokeColor=#000000;fillColor=#0B0B0B;" vertex="1" parent="1">
          <mxGeometry x="910.5" y="1340" width="200.5" height="100" as="geometry" />
        </mxCell>
        <mxCell id="eyIPHd_IOb050wTdh4Zv-85" value="Fin" style="ellipse;whiteSpace=wrap;html=1;fillColor=#6a00ff;strokeColor=#3700CC;fontColor=#ffffff;rounded=0;" vertex="1" parent="1">
          <mxGeometry x="740.5" y="1490" width="60" height="40" as="geometry" />
        </mxCell>
        <mxCell id="eyIPHd_IOb050wTdh4Zv-93" style="edgeStyle=orthogonalEdgeStyle;orthogonalLoop=1;jettySize=auto;html=1;exitX=0;exitY=0.5;exitDx=0;exitDy=0;entryX=1;entryY=0.5;entryDx=0;entryDy=0;fillColor=#008a00;strokeColor=#005700;" edge="1" parent="1" source="eyIPHd_IOb050wTdh4Zv-94" target="eyIPHd_IOb050wTdh4Zv-89">
          <mxGeometry relative="1" as="geometry" />
        </mxCell>
        <mxCell id="eyIPHd_IOb050wTdh4Zv-95" value="" style="edgeStyle=orthogonalEdgeStyle;orthogonalLoop=1;jettySize=auto;html=1;fillColor=#008a00;strokeColor=#005700;" edge="1" parent="1" source="eyIPHd_IOb050wTdh4Zv-96" target="eyIPHd_IOb050wTdh4Zv-81">
          <mxGeometry relative="1" as="geometry" />
        </mxCell>
        <mxCell id="eyIPHd_IOb050wTdh4Zv-88" value="&lt;span&gt;&lt;font style=&quot;color: rgb(255, 255, 255);&quot;&gt;Enviar notificación push&lt;/font&gt;&lt;/span&gt;" style="rhombus;whiteSpace=wrap;html=1;fillColor=#008a00;fontColor=#ffffff;strokeColor=#005700;" vertex="1" parent="1">
          <mxGeometry x="710" y="1200" width="120" height="80" as="geometry" />
        </mxCell>
        <mxCell id="eyIPHd_IOb050wTdh4Zv-92" style="edgeStyle=orthogonalEdgeStyle;orthogonalLoop=1;jettySize=auto;html=1;entryX=0.5;entryY=0;entryDx=0;entryDy=0;exitX=0.5;exitY=0;exitDx=0;exitDy=0;fillColor=#1ba1e2;strokeColor=#006EAF;" edge="1" parent="1" source="eyIPHd_IOb050wTdh4Zv-89" target="eyIPHd_IOb050wTdh4Zv-88">
          <mxGeometry relative="1" as="geometry" />
        </mxCell>
        <mxCell id="eyIPHd_IOb050wTdh4Zv-89" value="Posponer la notificación" style="rounded=0;whiteSpace=wrap;html=1;fillColor=#1ba1e2;fontColor=#ffffff;strokeColor=#006EAF;" vertex="1" parent="1">
          <mxGeometry x="432.5" y="1210" width="120" height="60" as="geometry" />
        </mxCell>
        <mxCell id="eyIPHd_IOb050wTdh4Zv-91" value="" style="edgeStyle=orthogonalEdgeStyle;orthogonalLoop=1;jettySize=auto;html=1;exitX=0.5;exitY=0;exitDx=0;exitDy=0;strokeColor=#FFFFFF;" edge="1" parent="1" source="eyIPHd_IOb050wTdh4Zv-90" target="eyIPHd_IOb050wTdh4Zv-89">
          <mxGeometry relative="1" as="geometry">
            <mxPoint x="382.5" y="1240" as="sourcePoint" />
          </mxGeometry>
        </mxCell>
        <mxCell id="eyIPHd_IOb050wTdh4Zv-90" value="&lt;span style=&quot;font-size: 10px;&quot;&gt;&lt;font style=&quot;color: rgb(255, 255, 255);&quot;&gt;- Posponer la notificación por 15 minutos, para que no sea abrumadora (5 min, y 10 min son muchas alertas por hora).&lt;/font&gt;&lt;/span&gt;" style="rounded=0;whiteSpace=wrap;html=1;align=left;fillColor=#0B0B0B;strokeColor=#000000;" vertex="1" parent="1">
          <mxGeometry x="415" y="1310" width="155" height="70" as="geometry" />
        </mxCell>
        <mxCell id="eyIPHd_IOb050wTdh4Zv-109" style="edgeStyle=orthogonalEdgeStyle;orthogonalLoop=1;jettySize=auto;html=1;entryX=0;entryY=0.5;entryDx=0;entryDy=0;fillColor=#1ba1e2;strokeColor=#006EAF;" edge="1" parent="1" source="eyIPHd_IOb050wTdh4Zv-98" target="eyIPHd_IOb050wTdh4Zv-85">
          <mxGeometry relative="1" as="geometry">
            <Array as="points">
              <mxPoint x="320" y="960" />
              <mxPoint x="320" y="1510" />
            </Array>
          </mxGeometry>
        </mxCell>
        <mxCell id="eyIPHd_IOb050wTdh4Zv-98" value="Guardar nota" style="rounded=0;whiteSpace=wrap;html=1;fillColor=#1ba1e2;fontColor=#ffffff;strokeColor=#006EAF;" vertex="1" parent="1">
          <mxGeometry x="472.5" y="930" width="120" height="60" as="geometry" />
        </mxCell>
        <mxCell id="eyIPHd_IOb050wTdh4Zv-99" value="" style="edgeStyle=orthogonalEdgeStyle;orthogonalLoop=1;jettySize=auto;html=1;exitX=0;exitY=0.5;exitDx=0;exitDy=0;entryX=1;entryY=0.5;entryDx=0;entryDy=0;fillColor=#008a00;strokeColor=#005700;" edge="1" parent="1" source="eyIPHd_IOb050wTdh4Zv-64" target="eyIPHd_IOb050wTdh4Zv-63">
          <mxGeometry relative="1" as="geometry">
            <mxPoint x="770" y="930" as="targetPoint" />
            <mxPoint x="710" y="710" as="sourcePoint" />
            <Array as="points" />
          </mxGeometry>
        </mxCell>
        <mxCell id="eyIPHd_IOb050wTdh4Zv-110" style="edgeStyle=orthogonalEdgeStyle;orthogonalLoop=1;jettySize=auto;html=1;exitX=0;exitY=0.5;exitDx=0;exitDy=0;entryX=0.5;entryY=0;entryDx=0;entryDy=0;fillColor=#008a00;strokeColor=#005700;" edge="1" parent="1" source="eyIPHd_IOb050wTdh4Zv-63" target="eyIPHd_IOb050wTdh4Zv-98">
          <mxGeometry relative="1" as="geometry" />
        </mxCell>
        <mxCell id="eyIPHd_IOb050wTdh4Zv-63" value="&lt;font style=&quot;color: rgb(255, 255, 255);&quot;&gt;NO&lt;/font&gt;" style="text;html=1;whiteSpace=wrap;strokeColor=none;fillColor=none;align=center;verticalAlign=middle;rounded=0;" vertex="1" parent="1">
          <mxGeometry x="619.5" y="696.25" width="30" height="27.5" as="geometry" />
        </mxCell>
        <mxCell id="eyIPHd_IOb050wTdh4Zv-100" value="" style="edgeStyle=orthogonalEdgeStyle;orthogonalLoop=1;jettySize=auto;html=1;exitX=0.5;exitY=1;exitDx=0;exitDy=0;entryX=0.5;entryY=0;entryDx=0;entryDy=0;fillColor=#008a00;strokeColor=#005700;" edge="1" parent="1" source="eyIPHd_IOb050wTdh4Zv-64" target="eyIPHd_IOb050wTdh4Zv-61">
          <mxGeometry relative="1" as="geometry">
            <mxPoint x="770" y="750" as="sourcePoint" />
            <mxPoint x="770" y="813" as="targetPoint" />
          </mxGeometry>
        </mxCell>
        <mxCell id="eyIPHd_IOb050wTdh4Zv-61" value="&lt;font style=&quot;color: rgb(255, 255, 255);&quot;&gt;SI&lt;/font&gt;" style="text;html=1;whiteSpace=wrap;strokeColor=none;fillColor=none;align=center;verticalAlign=middle;rounded=0;" vertex="1" parent="1">
          <mxGeometry x="740.5" y="770" width="60" height="20" as="geometry" />
        </mxCell>
        <mxCell id="eyIPHd_IOb050wTdh4Zv-101" value="" style="edgeStyle=orthogonalEdgeStyle;orthogonalLoop=1;jettySize=auto;html=1;entryX=0;entryY=0.5;entryDx=0;entryDy=0;fillColor=#008a00;strokeColor=#005700;" edge="1" parent="1" source="eyIPHd_IOb050wTdh4Zv-17" target="eyIPHd_IOb050wTdh4Zv-11">
          <mxGeometry relative="1" as="geometry">
            <mxPoint x="843" y="490" as="sourcePoint" />
            <mxPoint x="910" y="550" as="targetPoint" />
          </mxGeometry>
        </mxCell>
        <mxCell id="eyIPHd_IOb050wTdh4Zv-11" value="&lt;font style=&quot;color: rgb(255, 255, 255);&quot;&gt;Nota de texto&lt;/font&gt;" style="text;strokeColor=none;fillColor=none;align=left;verticalAlign=middle;spacingLeft=4;spacingRight=4;overflow=hidden;points=[[0,0.5],[1,0.5]];portConstraint=eastwest;rotatable=0;whiteSpace=wrap;html=1;" vertex="1" parent="1">
          <mxGeometry x="860" y="475" width="90" height="30" as="geometry" />
        </mxCell>
        <mxCell id="eyIPHd_IOb050wTdh4Zv-103" value="" style="endArrow=classic;html=1;exitX=0;exitY=0.5;exitDx=0;exitDy=0;entryX=1;entryY=0.5;entryDx=0;entryDy=0;fillColor=#008a00;strokeColor=#005700;" edge="1" parent="1" target="eyIPHd_IOb050wTdh4Zv-12">
          <mxGeometry width="50" height="50" relative="1" as="geometry">
            <mxPoint x="694" y="490" as="sourcePoint" />
            <mxPoint x="630" y="550" as="targetPoint" />
            <Array as="points" />
          </mxGeometry>
        </mxCell>
        <mxCell id="eyIPHd_IOb050wTdh4Zv-12" value="&lt;font style=&quot;color: rgb(255, 255, 255);&quot;&gt;Nota de voz&lt;/font&gt;" style="text;strokeColor=none;fillColor=none;align=left;verticalAlign=middle;spacingLeft=4;spacingRight=4;overflow=hidden;points=[[0,0.5],[1,0.5]];portConstraint=eastwest;rotatable=0;whiteSpace=wrap;html=1;" vertex="1" parent="1">
          <mxGeometry x="594.5" y="475" width="80" height="30" as="geometry" />
        </mxCell>
        <mxCell id="eyIPHd_IOb050wTdh4Zv-104" value="" style="edgeStyle=orthogonalEdgeStyle;orthogonalLoop=1;jettySize=auto;html=1;entryX=1;entryY=0.5;entryDx=0;entryDy=0;exitX=0.5;exitY=1;exitDx=0;exitDy=0;fillColor=#008a00;strokeColor=#005700;" edge="1" parent="1" source="eyIPHd_IOb050wTdh4Zv-44" target="eyIPHd_IOb050wTdh4Zv-55">
          <mxGeometry relative="1" as="geometry">
            <mxPoint x="970" y="390" as="sourcePoint" />
            <mxPoint x="770" y="450" as="targetPoint" />
          </mxGeometry>
        </mxCell>
        <mxCell id="eyIPHd_IOb050wTdh4Zv-55" value="&lt;font style=&quot;color: rgb(255, 255, 255);&quot;&gt;ACTUALIZAR&lt;/font&gt;" style="text;html=1;whiteSpace=wrap;strokeColor=none;fillColor=none;align=center;verticalAlign=middle;rounded=0;" vertex="1" parent="1">
          <mxGeometry x="829.5" y="400" width="92.5" height="30" as="geometry" />
        </mxCell>
        <mxCell id="eyIPHd_IOb050wTdh4Zv-105" value="" style="edgeStyle=orthogonalEdgeStyle;orthogonalLoop=1;jettySize=auto;html=1;fillColor=#008a00;strokeColor=#005700;" edge="1" parent="1" source="eyIPHd_IOb050wTdh4Zv-44" target="eyIPHd_IOb050wTdh4Zv-52">
          <mxGeometry relative="1" as="geometry">
            <mxPoint x="1030" y="350" as="sourcePoint" />
            <mxPoint x="1110" y="350" as="targetPoint" />
          </mxGeometry>
        </mxCell>
        <mxCell id="eyIPHd_IOb050wTdh4Zv-106" style="edgeStyle=orthogonalEdgeStyle;orthogonalLoop=1;jettySize=auto;html=1;entryX=0;entryY=0.5;entryDx=0;entryDy=0;fillColor=#008a00;strokeColor=#005700;" edge="1" parent="1" source="eyIPHd_IOb050wTdh4Zv-52" target="eyIPHd_IOb050wTdh4Zv-48">
          <mxGeometry relative="1" as="geometry" />
        </mxCell>
        <mxCell id="eyIPHd_IOb050wTdh4Zv-52" value="&lt;font style=&quot;color: rgb(255, 255, 255);&quot;&gt;BORRAR&lt;/font&gt;" style="text;html=1;whiteSpace=wrap;strokeColor=none;fillColor=none;align=center;verticalAlign=middle;rounded=0;" vertex="1" parent="1">
          <mxGeometry x="1070" y="335" width="60" height="30" as="geometry" />
        </mxCell>
        <mxCell id="eyIPHd_IOb050wTdh4Zv-107" value="" style="edgeStyle=orthogonalEdgeStyle;orthogonalLoop=1;jettySize=auto;html=1;fillColor=#008a00;strokeColor=#005700;" edge="1" parent="1" source="eyIPHd_IOb050wTdh4Zv-88" target="eyIPHd_IOb050wTdh4Zv-96">
          <mxGeometry relative="1" as="geometry">
            <mxPoint x="770" y="1280" as="sourcePoint" />
            <mxPoint x="770" y="1360" as="targetPoint" />
          </mxGeometry>
        </mxCell>
        <mxCell id="eyIPHd_IOb050wTdh4Zv-96" value="&lt;font style=&quot;color: rgb(255, 255, 255);&quot;&gt;RESPONDER&lt;/font&gt;" style="text;html=1;whiteSpace=wrap;strokeColor=none;fillColor=none;align=center;verticalAlign=middle;rounded=0;" vertex="1" parent="1">
          <mxGeometry x="724.5" y="1300" width="90" height="30" as="geometry" />
        </mxCell>
        <mxCell id="eyIPHd_IOb050wTdh4Zv-108" value="" style="edgeStyle=orthogonalEdgeStyle;orthogonalLoop=1;jettySize=auto;html=1;exitX=0;exitY=0.5;exitDx=0;exitDy=0;entryX=1;entryY=0.5;entryDx=0;entryDy=0;fillColor=#008a00;strokeColor=#005700;" edge="1" parent="1" source="eyIPHd_IOb050wTdh4Zv-88" target="eyIPHd_IOb050wTdh4Zv-94">
          <mxGeometry relative="1" as="geometry">
            <mxPoint x="710" y="1240" as="sourcePoint" />
            <mxPoint x="553" y="1240" as="targetPoint" />
          </mxGeometry>
        </mxCell>
        <mxCell id="eyIPHd_IOb050wTdh4Zv-94" value="&lt;font style=&quot;color: rgb(255, 255, 255);&quot;&gt;POSPONER&lt;/font&gt;" style="text;html=1;whiteSpace=wrap;strokeColor=none;fillColor=none;align=center;verticalAlign=middle;rounded=0;" vertex="1" parent="1">
          <mxGeometry x="597.25" y="1225" width="74.5" height="30" as="geometry" />
        </mxCell>
      </root>
    </mxGraphModel>
  </diagram>
</mxfile>
